<?xml version="1.0" encoding="UTF-8"?>
<!DOCTYPE svg PUBLIC "-//W3C//DTD SVG 1.1//EN" "http://www.w3.org/Graphics/SVG/1.1/DTD/svg11.dtd">
<!-- Creator: CorelDRAW -->
<svg xmlns="http://www.w3.org/2000/svg" xml:space="preserve" width="7.43386in" height="1.31975in" version="1.1" style="shape-rendering:geometricPrecision; text-rendering:geometricPrecision; image-rendering:optimizeQuality; fill-rule:evenodd; clip-rule:evenodd"
viewBox="0 0 2420.91 429.79"
 xmlns:xlink="http://www.w3.org/1999/xlink"
 xmlns:xodm="http://www.corel.com/coreldraw/odm/2003">
 <defs>
  <style type="text/css">
   <![CDATA[
    .fil1 {fill:#E6E6E6}
    .fil0 {fill:#FF6600}
   ]]>
  </style>
 </defs>
 <g id="Layer_x0020_1">
  <metadata id="CorelCorpID_0Corel-Layer"/>
  <g id="_2019359738176">
   <path class="fil0" d="M174.21 87.57c2.41,0 3.62,1.21 3.62,3.62l0 246.32c0,2.66 -1.21,3.98 -3.62,3.98l-23.55 0c-2.66,0 -3.98,-1.33 -3.98,-3.98l0 -150.33 -33.69 131.85c-0.48,2.66 -1.69,3.98 -3.62,3.98l-14.49 0c-2.17,0 -3.5,-1.33 -3.98,-3.98l-33.69 -131.85 0 150.33c0,2.66 -1.21,3.98 -3.62,3.98l-23.55 0c-2.66,0 -3.98,-1.33 -3.98,-3.98l0 -246.32c0,-2.42 1.33,-3.62 3.98,-3.62l27.89 0c2.17,0 3.38,0.6 3.62,1.81l40.57 172.42c26.08,-111.57 39.6,-169.04 40.57,-172.42 0.24,-1.21 1.33,-1.81 3.26,-1.81l28.25 0zm56.15 249.94l32.24 -246.32c0.97,-2.66 2.29,-3.98 3.98,-3.98l35.86 0c1.93,0 3.14,1.33 3.62,3.98 1.45,4.59 12.2,86.69 32.24,246.32 0.24,2.66 -0.97,3.98 -3.62,3.98l-23.91 0c-1.93,0 -3.14,-1.33 -3.62,-3.98 -0.97,-5.8 -2.3,-14.85 -3.98,-27.17 -0.48,-1.69 -1.45,-2.54 -2.9,-2.54l-31.88 0c-1.21,0 -2.05,0.84 -2.53,2.54l-3.98 27.17c-0.48,2.66 -1.81,3.98 -3.98,3.98l-23.55 0c-2.9,0 -4.23,-1.33 -3.98,-3.98zm40.21 -61.22c0,1.93 0.97,2.9 2.9,2.9l22.1 0c2.17,0 3.02,-0.97 2.54,-2.9l-13.76 -153.59 -13.77 153.59zm179.67 -188.72c9.66,0 17.99,3.68 24.99,11.05 7,7.36 10.51,16.24 10.51,26.62l0 65.93c0,9.66 -3.56,18.17 -10.69,25.54 -7.12,7.37 -15.39,11.05 -24.81,11.05l-24.27 0c-2.66,0 -3.98,1.21 -3.98,3.62l0 106.13c0,2.66 -1.21,3.98 -3.62,3.98l-23.55 0c-2.66,0 -3.98,-1.33 -3.98,-3.98l0 -245.96c0,-2.66 1.33,-3.98 3.98,-3.98l55.42 0zm3.98 94.18l0 -46.73c0,-4.11 -1.45,-7.79 -4.35,-11.05 -2.9,-3.26 -6.28,-4.89 -10.14,-4.89l-13.76 0c-2.66,0 -3.98,1.21 -3.98,3.62l0 70.27c0,2.17 1.33,3.26 3.98,3.26l13.76 0c4.11,0 7.55,-1.39 10.32,-4.17 2.78,-2.78 4.17,-6.22 4.17,-10.32zm147.07 -94.18c9.66,0 17.99,3.68 24.99,11.05 7,7.36 10.51,16.24 10.51,26.62l0 65.93c0,9.66 -3.56,18.17 -10.69,25.54 -7.12,7.37 -15.39,11.05 -24.81,11.05l-24.27 0c-2.66,0 -3.98,1.21 -3.98,3.62l0 106.13c0,2.66 -1.21,3.98 -3.62,3.98l-23.55 0c-2.66,0 -3.98,-1.33 -3.98,-3.98l0 -245.96c0,-2.66 1.33,-3.98 3.98,-3.98l55.42 0zm3.98 94.18l0 -46.73c0,-4.11 -1.45,-7.79 -4.35,-11.05 -2.9,-3.26 -6.28,-4.89 -10.14,-4.89l-13.76 0c-2.66,0 -3.98,1.21 -3.98,3.62l0 70.27c0,2.17 1.33,3.26 3.98,3.26l13.76 0c4.11,0 7.55,-1.39 10.32,-4.17 2.78,-2.78 4.17,-6.22 4.17,-10.32zm87.66 154.67l0 -243.42c0,-3.38 1.69,-5.07 5.07,-5.07l21.37 0c3.38,0 5.07,1.69 5.07,5.07l0 243.42c0,3.38 -1.69,5.07 -5.07,5.07l-21.37 0c-3.38,0 -5.07,-1.69 -5.07,-5.07zm172.79 -84.76l0 -160.11c0,-2.66 1.21,-3.98 3.62,-3.98l23.55 0c2.66,0 3.98,1.33 3.98,3.98l0 245.96c0,2.42 -1.33,3.62 -3.98,3.62l-22.46 0c-2.17,0 -3.74,-1.21 -4.71,-3.62 -0.97,-3.38 -7.31,-25.05 -19.02,-65.02 -11.71,-39.97 -20.34,-70.21 -25.9,-90.74l0 155.76c0,2.66 -1.21,3.98 -3.62,3.98l-23.55 0c-2.66,0 -3.98,-1.33 -3.98,-3.98l0 -246.32c0,-2.42 1.33,-3.62 3.98,-3.62l24.27 0c2.17,0 3.38,0.6 3.62,1.81l44.19 162.28zm186.19 -55.78c2.17,0 3.26,0.97 3.26,2.9l0 105.77c0,14.01 -4.77,24.33 -14.31,30.97 -9.54,6.64 -20.71,9.96 -33.51,9.96 -14.01,0 -25.66,-3.86 -34.96,-11.59 -9.3,-7.73 -13.95,-19.92 -13.95,-36.59l0 -164.82c0,-16.9 4.59,-29.16 13.76,-36.77 9.18,-7.61 20.89,-11.41 35.14,-11.41 12.8,0 23.97,2.96 33.51,8.87 9.54,5.92 14.31,14.91 14.31,26.99l0 20.65c0,2.42 -1.21,3.62 -3.62,3.62l-22.1 2.9c-2.9,0.48 -4.35,-0.73 -4.35,-3.62l0 -10.5c0,-11.59 -5.92,-17.39 -17.75,-17.39 -11.59,0 -17.39,5.8 -17.39,17.39l0 163.01c0,11.35 5.8,17.03 17.39,17.03 11.83,0 17.75,-5.8 17.75,-17.39l-0.36 -65.57c0,-2.66 -1.21,-3.98 -3.62,-3.98l-12.32 0.36c-2.41,0 -3.62,-1.33 -3.62,-3.98l0 -23.18c0,-2.41 1.21,-3.62 3.62,-3.62l43.11 0z"/>
   <path class="fil0" d="M1614.48 136.29c0,-5.31 -1.75,-9.9 -5.25,-13.76 -3.5,-3.86 -8.03,-5.8 -13.58,-5.8 -5.56,0 -10.14,2.11 -13.76,6.34 -3.62,4.23 -5.43,9.84 -5.43,16.84 0,8.45 2.53,17.15 7.61,26.08 5.07,8.94 11.17,17.45 18.29,25.54 7.12,8.09 14.25,16.42 21.37,24.99 7.12,8.57 13.22,18.35 18.29,29.34 5.07,10.99 7.61,22.4 7.61,34.23 0,14.97 -4.71,29.4 -14.13,43.29 -9.42,13.89 -23.06,20.83 -40.93,20.83 -15.21,0 -27.59,-4.95 -37.13,-14.85 -9.54,-9.9 -14.43,-24.27 -14.67,-43.11l0 -8.69c0,-2.66 1.33,-3.98 3.98,-3.98l23.18 0c2.66,0 3.98,1.33 3.98,3.98l0 7.61c0,8.69 2.05,15.52 6.16,20.47 4.11,4.95 9.3,7.42 15.58,7.42 6.28,0 11.47,-2.9 15.58,-8.69 4.11,-5.8 6.16,-14.37 6.16,-25.72 0,-9.18 -2.54,-18.29 -7.61,-27.35 -5.07,-9.06 -11.29,-17.51 -18.65,-25.36 -7.37,-7.85 -14.73,-15.82 -22.1,-23.91 -7.37,-8.09 -13.58,-17.51 -18.65,-28.25 -5.07,-10.75 -7.61,-22.04 -7.61,-33.87 0,-15.45 5.01,-28.37 15.03,-38.76 10.02,-10.38 22.16,-15.58 36.4,-15.58 14.25,0 26.38,4.95 36.4,14.85 10.02,9.9 15.03,21.86 15.03,35.86 0,2.66 -1.21,3.98 -3.62,3.98l-23.55 0c-2.66,0 -3.98,-1.33 -3.98,-3.98zm126.42 173.87l53.25 0c3.38,0 5.07,1.69 5.07,5.07l0 21.01c0,3.62 -1.69,5.43 -5.07,5.43l-84.76 0c-1.21,0 -2.41,-0.54 -3.62,-1.63 -1.21,-1.09 -1.81,-2.36 -1.81,-3.8l0 -245.6c0,-0.24 0,-0.48 0,-0.72 0,-0.24 0.3,-0.6 0.91,-1.09 0.6,-0.48 1.39,-0.72 2.35,-0.72l25.72 0c0.97,0 1.69,0.24 2.17,0.72 0.48,0.48 0.72,0.97 0.72,1.45l0 0.36 0 214.44c0,3.38 1.69,5.07 5.07,5.07zm98.17 27.53l32.24 -246.32c0.97,-2.66 2.29,-3.98 3.98,-3.98l35.86 0c1.93,0 3.14,1.33 3.62,3.98 1.45,4.59 12.2,86.69 32.24,246.32 0.24,2.66 -0.97,3.98 -3.62,3.98l-23.91 0c-1.93,0 -3.14,-1.33 -3.62,-3.98 -0.97,-5.8 -2.3,-14.85 -3.98,-27.17 -0.48,-1.69 -1.45,-2.54 -2.9,-2.54l-31.88 0c-1.21,0 -2.05,0.84 -2.53,2.54l-3.98 27.17c-0.48,2.66 -1.81,3.98 -3.98,3.98l-23.55 0c-2.9,0 -4.23,-1.33 -3.98,-3.98zm40.21 -61.22c0,1.93 0.97,2.9 2.9,2.9l22.1 0c2.17,0 3.02,-0.97 2.54,-2.9l-13.76 -153.59 -13.77 153.59zm147.43 -1.09l-38.03 -183.29c-0.48,-2.66 0.84,-3.98 3.98,-3.98l21.01 0c3.62,0 5.67,1.93 6.16,5.8l22.46 130.77 21.73 -130.77c0.72,-3.86 2.66,-5.8 5.8,-5.8l21.73 0c3.38,0 4.59,1.93 3.62,5.8l-37.67 181.48 0 61.22c0,3.38 -1.69,5.07 -5.07,5.07l-20.65 0c-3.38,0 -5.07,-1.69 -5.07,-5.07l0 -61.22zm153.95 30.06c0,3.38 1.81,5.07 5.43,5.07l53.25 0c3.14,0 4.71,1.57 4.71,4.71l0 21.01c0,3.62 -1.69,5.43 -5.07,5.43l-84.4 0c-3.38,0 -5.07,-1.81 -5.07,-5.43l0 -243.06c0,-3.38 1.69,-5.07 5.07,-5.07l84.76 0c3.38,0 5.07,1.69 5.07,5.07l0 21.37c0,3.38 -1.69,5.07 -5.07,5.07l-53.61 0c-3.38,0 -5.07,1.69 -5.07,5.07l0 65.93c0,3.38 1.69,5.07 5.07,5.07l42.74 0c3.38,0 5.07,1.69 5.07,5.07l0 21.01c0,3.38 -1.69,5.07 -5.07,5.07l-42.74 0c-3.38,0 -5.07,1.69 -5.07,5.07l0 73.53zm195.25 -90.56l24.99 122.8c0.48,2.66 -0.84,3.98 -3.98,3.98l-23.91 0c-1.93,0 -3.38,-1.33 -4.35,-3.98l-24.27 -119.9c-0.48,-1.69 -1.69,-2.54 -3.62,-2.54l-6.88 0c-2.66,0 -3.98,1.21 -3.98,3.62l0 118.81c0,2.66 -1.21,3.98 -3.62,3.98l-23.55 0c-2.66,0 -3.98,-1.33 -3.98,-3.98l0 -245.96c0,-2.66 1.33,-3.98 3.98,-3.98l55.42 0c9.66,0 17.99,3.62 24.99,10.87 7,7.25 10.51,15.82 10.51,25.72l0 55.42c0,12.32 -5.43,22.1 -16.3,29.34 -1.69,1.21 -2.17,3.14 -1.45,5.8zm-13.76 -45.64l0 -34.05c0,-4.11 -1.45,-7.79 -4.35,-11.05 -2.9,-3.26 -6.28,-4.89 -10.14,-4.89l-13.76 0c-2.66,0 -3.98,1.21 -3.98,3.62l0 57.59c0,2.17 1.33,3.26 3.98,3.26l13.76 0c4.11,0 7.55,-1.45 10.32,-4.35 2.78,-2.9 4.17,-6.28 4.17,-10.14z"/>
   <path class="fil1" d="M-0 384.13l1206.43 0 23.55 20.33 -1229.98 0 0 -20.33zm1395.62 0l1025.29 0 0 20.33 -1048.84 0 23.55 -20.33zm-1395.62 -358.8l1142.27 0 -23.58 20.33 -1118.68 0 0 -20.33zm1459.78 0l961.13 0 0 20.33 -937.55 0 -23.58 -20.33z"/>
   <path class="fil0" d="M1137.59 75.76l75.76 -75.76 87.67 87.67 87.67 -87.67 75.76 75.76c18.54,18.54 18.54,48.61 0,67.15 -33.79,33.79 -67.76,67.46 -101.56,101.26l-47.31 -47.31 80.76 -80.76c3.65,-4.05 3.53,-10.29 -0.36,-14.19l-7.29 -7.29 -87.67 87.67 -87.67 -87.67 -7.28 7.28c-3.9,3.9 -4.02,10.15 -0.37,14.2l176.1 176.1c15.6,15.6 15.59,41.12 0,56.72 -26.94,26.97 -53.82,53.9 -80.78,80.86 -26.76,-26.76 -53.44,-53.5 -80.19,-80.27 -15.59,-15.61 -15.6,-41.12 0,-56.72l18.91 -18.91 61.28 61.32 14.58 -14.59 -178.01 -177.71c-18.56,-18.53 -18.54,-48.61 0,-67.15z"/>
  </g>
 </g>
</svg>
